HIERARCHY
ROOT Hips
{
    OFFSET 0.000000 0.000000 0.000000
    CHANNELS 6 Xposition Yposition Zposition Zrotation Xrotation Yrotation
    JOINT Spine
    {
        OFFSET -0.000000 14.517291 0.000000
        CHANNELS 3 Zrotation Xrotation Yrotation
        JOINT Spine1
        {
            OFFSET -0.000000 37.558300 0.000000
            CHANNELS 3 Zrotation Xrotation Yrotation
            JOINT Neck
            {
                OFFSET -0.000000 37.404057 3.400369
                CHANNELS 3 Zrotation Xrotation Yrotation
                JOINT Head
                {
                    OFFSET -0.000000 24.785618 -3.540803
                    CHANNELS 3 Zrotation Xrotation Yrotation
                    End Site
                    {
                        OFFSET -0.000000 35.408028 0.000000
                    }
                }
            }
            JOINT LeftShoulder
            {
                OFFSET 6.992933 33.973492 -0.192664
                CHANNELS 3 Zrotation Xrotation Yrotation
                JOINT LeftArm
                {
                    OFFSET 21.527611 0.000000 0.000000
                    CHANNELS 3 Zrotation Xrotation Yrotation
                    JOINT LeftForeArm
                    {
                        OFFSET 56.353916 0.000000 0.000000
                        CHANNELS 3 Zrotation Xrotation Yrotation
                        JOINT LeftHand
                        {
                            OFFSET 47.774071 0.000000 0.000000
                            CHANNELS 3 Zrotation Xrotation Yrotation
                            End Site
                            {
                                OFFSET 26.556021 0.000000 0.000000
                            }
                        }
                    }
                }
            }
            JOINT RightShoulder
            {
                OFFSET -7.065357 33.973492 -0.192664
                CHANNELS 3 Zrotation Xrotation Yrotation
                JOINT RightArm
                {
                    OFFSET -21.527611 0.000000 0.000000
                    CHANNELS 3 Zrotation Xrotation Yrotation
                    JOINT RightForeArm
                    {
                        OFFSET -56.353916 0.000000 0.000000
                        CHANNELS 3 Zrotation Xrotation Yrotation
                        JOINT RightHand
                        {
                            OFFSET -47.774071 0.000000 0.000000
                            CHANNELS 3 Zrotation Xrotation Yrotation
                            End Site
                            {
                                OFFSET -26.556021 0.000000 0.000000
                            }
                        }
                    }
                }
            }
        }
    }
    JOINT LeftUpLeg
    {
        OFFSET 17.704014 0.000000 0.000000
        CHANNELS 3 Zrotation Xrotation Yrotation
        JOINT LeftLeg
        {
            OFFSET -0.000000 -81.181816 0.000000
            CHANNELS 3 Zrotation Xrotation Yrotation
            JOINT LeftFoot
            {
                OFFSET -0.000000 -62.821102 0.000000
                CHANNELS 3 Zrotation Xrotation Yrotation
                JOINT LeftToeBase
                {
                    OFFSET -0.000000 -11.507608 26.556021
                    CHANNELS 3 Zrotation Xrotation Yrotation
                    End Site
                    {
                        OFFSET -0.000000 0.000000 7.081605
                    }
                }
            }
        }
    }
    JOINT RightUpLeg
    {
        OFFSET -17.704014 0.000000 0.000000
        CHANNELS 3 Zrotation Xrotation Yrotation
        JOINT RightLeg
        {
            OFFSET -0.000000 -81.181816 0.000000
            CHANNELS 3 Zrotation Xrotation Yrotation
            JOINT RightFoot
            {
                OFFSET -0.000000 -62.821102 0.000000
                CHANNELS 3 Zrotation Xrotation Yrotation
                JOINT RightToeBase
                {
                    OFFSET -0.000000 -11.507608 26.556021
                    CHANNELS 3 Zrotation Xrotation Yrotation
                    End Site
                    {
                        OFFSET -0.000000 0.000000 7.081605
                    }
                }
            }
        }
    }
}
MOTION
Frames:    7
Frame Time:    0.008333
-6.486016    164.575134    -60.326622    -3.041459    -3.427399    34.984833    1.249799    -4.757861    0.133505    -5.794987    1.637432    0.108030    3.943208    -0.209876    -15.444952    11.491739    1.253589    -15.205026    5.657152    8.079379    -15.635149    -35.922882    21.538395    -47.764130    -7.103341    -8.319884    -117.428505    0.930417    -19.742411    -6.211774    -15.371748    -3.280322    -5.633806    20.483135    -21.476593    52.349407    -12.526658    -15.175240    51.139786    3.985368    -8.184983    31.370714    17.439062    7.333125    -5.575743    -8.251581    16.382257    -20.172712    -9.172766    -17.422588    40.587414    0.000000    0.000000    0.000000    0.796052    -5.913913    -0.993423    6.222159    7.325088    -12.946179    0.587744    1.925156    -13.258224    0.000000    0.000000    0.000000    
-6.345138    164.569595    -60.409470    -3.044031    -3.437079    34.968964    1.260474    -4.764585    0.128036    -5.803216    1.638504    0.107439    3.948738    -0.190518    -15.453875    11.478185    1.238829    -15.214773    5.657322    8.089398    -15.640936    -35.911163    21.565514    -47.811100    -7.082619    -8.355353    -117.419128    0.902722    -19.740067    -6.215026    -15.363901    -3.249930    -5.657661    20.456125    -21.502636    52.368549    -12.549722    -15.142438    51.116623    3.984984    -8.146135    31.301428    17.375494    7.408428    -5.571252    -8.239299    16.277714    -20.152349    -9.066283    -17.408314    40.590130    0.000000    0.000000    0.000000    0.762971    -5.901198    -1.014106    6.185338    7.314453    -12.956498    0.635565    1.944698    -13.229029    0.000000    0.000000    0.000000    
-6.210320    164.562637    -60.498894    -3.063587    -3.432381    34.957329    1.287096    -4.783899    0.127384    -5.818407    1.637265    0.104211    3.913720    -0.225796    -15.466104    11.493851    1.290596    -15.226682    5.644124    8.106781    -15.656204    -35.909439    21.534483    -47.839012    -7.099764    -8.303068    -117.415924    0.916974    -19.717527    -6.219876    -15.361481    -3.229586    -5.690865    20.423168    -21.506517    52.383766    -12.562857    -15.163628    51.114616    4.012507    -8.157131    31.219124    17.312134    7.446636    -5.574394    -8.221468    16.202248    -20.161993    -8.948583    -17.420263    40.634567    0.000000    0.000000    0.000000    0.726136    -5.918145    -1.034888    6.169523    7.317060    -12.920477    0.653610    1.967697    -13.249556    0.000000    0.000000    0.000000    
-6.083154    164.555008    -60.573601    -3.081371    -3.442246    34.943665    1.294788    -4.798674    0.113524    -5.794134    1.641093    0.100667    3.876460    -0.224238    -15.478501    11.506310    1.299369    -15.233250    5.630322    8.123797    -15.678841    -35.958115    21.484018    -47.832596    -7.131165    -8.224964    -117.420898    0.920497    -19.694046    -6.238069    -15.402003    -3.269073    -5.681046    20.427792    -21.500523    52.351994    -12.514412    -15.148822    51.130257    4.009633    -8.162684    31.253904    17.260801    7.503544    -5.565410    -8.210649    16.112906    -20.166466    -8.831351    -17.411598    40.687763    0.000000    0.000000    0.000000    0.702951    -5.916848    -1.035481    6.156081    7.306064    -12.929924    0.675716    1.996944    -13.249350    0.000000    0.000000    0.000000    
-5.957445    164.542038    -60.663189    -3.098804    -3.442771    34.923336    1.336695    -4.796419    0.097192    -5.832509    1.618789    0.096905    3.903698    -0.230439    -15.482384    11.435513    1.309000    -15.251627    5.624747    8.123410    -15.673612    -35.959679    21.511524    -47.841751    -7.117486    -8.248406    -117.429268    0.872954    -19.694185    -6.236471    -15.427078    -3.299692    -5.675865    20.460251    -21.485859    52.351440    -12.474388    -15.153376    51.125881    3.990230    -8.190042    31.320911    17.189680    7.545683    -5.573523    -8.192495    16.039988    -20.132462    -8.707744    -17.427505    40.742599    0.000000    0.000000    0.000000    0.668046    -5.926049    -0.995498    6.150755    7.291612    -12.960286    0.700014    2.018051    -13.264908    0.000000    0.000000    0.000000    
-5.840361    164.525711    -60.748405    -3.119349    -3.455183    34.911583    1.380863    -4.787436    0.076875    -5.873205    1.601333    0.095951    3.911390    -0.208377    -15.484519    11.437670    1.289793    -15.252081    5.635070    8.132648    -15.678090    -35.947784    21.541567    -47.865883    -7.100809    -8.290298    -117.435951    0.899242    -19.710569    -6.217727    -15.421951    -3.331616    -5.659511    20.444826    -21.458672    52.319439    -12.481579    -15.172083    51.111294    4.004518    -8.202800    31.347414    17.134079    7.593614    -5.570285    -8.175475    15.962939    -20.115067    -8.582462    -17.452110    40.801945    0.000000    0.000000    0.000000    0.645316    -5.938713    -1.059919    6.128690    7.314491    -12.924163    0.740989    2.018591    -13.237168    0.000000    0.000000    0.000000    
-5.727707    164.508774    -60.837418    -3.143562    -3.463926    34.892319    1.408812    -4.769917    0.073770    -5.879080    1.578800    0.089862    3.918942    -0.213393    -15.491793    11.425089    1.287908    -15.262440    5.631591    8.161535    -15.665638    -35.930347    21.564123    -47.923328    -7.082194    -8.324995    -117.432999    0.871141    -19.712452    -6.239792    -15.423250    -3.322375    -5.659600    20.424822    -21.462021    52.304749    -12.506205    -15.215088    51.100868    4.050470    -8.225319    31.304754    17.082735    7.644050    -5.553199    -8.155481    15.875633    -20.140877    -8.441492    -17.465008    40.871635    0.000000    0.000000    0.000000    0.621532    -5.952597    -1.087655    6.120144    7.316907    -12.917204    0.754657    2.037107    -13.220160    0.000000    0.000000    0.000000    
